<?xml version="1.0" encoding="iso-8859-1"?>
<!-- Uploaded to: SVG Repo, www.svgrepo.com, Generator: SVG Repo Mixer Tools -->
<svg version="1.1" id="Layer_1" xmlns="http://www.w3.org/2000/svg" xmlns:xlink="http://www.w3.org/1999/xlink" 
	 viewBox="0 0 512 512" xml:space="preserve">
<path style="fill:#554F4E;" d="M360.088,66.155V0l-16.879,16.879v81.582h33.758v-8.44C376.967,79.02,369.91,69.639,360.088,66.155z"
	/>
<path style="fill:#7F7774;" d="M151.912,0v66.155c-9.823,3.484-16.879,12.865-16.879,23.867v8.44h33.758V16.879L151.912,0z"/>
<polygon style="fill:#792A18;" points="512,225.055 421.978,191.297 478.242,444.484 512,410.725 "/>
<g>
	<polygon style="fill:#95341D;" points="0,225.055 0,410.725 101.275,512 410.725,512 478.242,444.484 478.242,191.297 	"/>
	<path style="fill:#95341D;" d="M478.242,90.022l-33.758,84.396l33.758,84.396c18.567,0,33.758-15.191,33.758-33.758V123.78
		C512,105.213,496.809,90.022,478.242,90.022z"/>
</g>
<path style="fill:#AB5D4A;" d="M33.758,90.022C15.191,90.022,0,105.213,0,123.78v101.275c0,18.567,15.191,33.758,33.758,33.758
	h444.484V90.022H33.758z"/>
<path style="fill:#F5AC51;" d="M478.242,416.553l-19.13,47.724L478.242,512C496.809,512,512,496.809,512,478.242v-67.517
	C500.177,410.725,488.814,412.786,478.242,416.553z"/>
<g>
	<path style="fill:#FFD159;" d="M410.725,512h67.517v-95.447C439.009,430.535,410.725,468.122,410.725,512z"/>
	<path style="fill:#FFD159;" d="M0,410.725v67.517C0,496.809,15.191,512,33.758,512h67.516
		C101.275,456.299,55.701,410.725,0,410.725z"/>
</g>
<path style="fill:#F1866D;" d="M244.747,270.066L256,343.209c18.645,0,33.758-15.114,33.758-33.758v-16.879L244.747,270.066z"/>
<g>
	<path style="fill:#F5AC51;" d="M222.242,292.571v16.879c0,18.645,15.114,33.758,33.758,33.758v-73.143L222.242,292.571z"/>
	<polygon style="fill:#F5AC51;" points="289.758,208.176 256,208.176 244.747,250.374 256,292.571 289.758,292.571 	"/>
</g>
<rect x="222.242" y="208.176" style="fill:#FFD159;" width="33.758" height="84.396"/>
<g>
	<circle style="fill:#95341D;" cx="42.198" cy="132.22" r="8.44"/>
	<circle style="fill:#95341D;" cx="75.956" cy="165.978" r="8.44"/>
</g>
<g>
	<circle style="fill:#792A18;" cx="436.044" cy="385.407" r="8.44"/>
	<polygon style="fill:#792A18;" points="326.33,0 315.077,16.879 326.33,33.758 360.088,33.758 360.088,0 	"/>
</g>
<rect x="151.912" style="fill:#95341D;" width="174.418" height="33.758"/>
</svg>